<svg width="38" height="39" viewBox="0 0 38 39" fill="none" xmlns="http://www.w3.org/2000/svg">
<rect width="38" height="39" rx="12" fill="#FDF4FF"/>
<path d="M20.8243 29.392C19.8909 29.392 19.0789 29.2147 18.3883 28.86C17.6976 28.4867 17.1376 27.9547 16.7083 27.264C16.2789 26.5733 15.9803 25.7333 15.8123 24.744H15.2803L15.2523 29H11.9203V21.776V8.98H15.9523V13.796C15.9523 14.244 15.9243 14.7293 15.8683 15.252C15.8123 15.756 15.7283 16.2787 15.6163 16.82C15.5229 17.3613 15.4203 17.9213 15.3083 18.5H15.9243C16.1669 17.5667 16.4936 16.764 16.9043 16.092C17.3336 15.4013 17.8749 14.8787 18.5283 14.524C19.1816 14.1507 19.9563 13.964 20.8523 13.964C22.0843 13.964 23.1483 14.2813 24.0443 14.916C24.9403 15.5507 25.6309 16.4467 26.1163 17.604C26.6203 18.7613 26.8723 20.1333 26.8723 21.72C26.8723 23.2693 26.6296 24.6227 26.1443 25.78C25.6589 26.9187 24.9589 27.8053 24.0443 28.44C23.1483 29.0747 22.0749 29.392 20.8243 29.392ZM19.3963 26.088C20.0683 26.088 20.6469 25.9107 21.1323 25.556C21.6176 25.1827 21.9909 24.66 22.2523 23.988C22.5136 23.316 22.6443 22.532 22.6443 21.636C22.6443 20.74 22.5136 19.9653 22.2523 19.312C22.0096 18.6587 21.6549 18.1453 21.1883 17.772C20.7216 17.3987 20.1523 17.212 19.4803 17.212C19.0323 17.212 18.6216 17.296 18.2483 17.464C17.8749 17.632 17.5483 17.8653 17.2683 18.164C16.9883 18.444 16.7456 18.7707 16.5403 19.144C16.3349 19.4987 16.1856 19.872 16.0923 20.264C15.9989 20.656 15.9523 21.0293 15.9523 21.384V21.916C15.9523 22.3453 16.0176 22.812 16.1483 23.316C16.2789 23.8013 16.4843 24.2587 16.7643 24.688C17.0629 25.0987 17.4269 25.4347 17.8563 25.696C18.2856 25.9573 18.7989 26.088 19.3963 26.088Z" fill="black"/>
</svg>
